<?xml version="1.0" encoding="UTF-8"?>
<svg id="Calque_1" data-name="Calque 1" xmlns="http://www.w3.org/2000/svg" viewBox="0 0 796.71 313.15">
  <g>
    <path d="M444.03,236.13v16.94c0,1.15.24,1.97.7,2.47.47.5,1.27.75,2.41.75h3.4v5.28h-4.37c-2.5,0-4.41-.67-5.74-2s-1.99-3.5-1.99-6.5v-16.94h-3.16v-5.17h3.16v-10.57h5.59v10.57h6.51v5.17h-6.51Z"/>
    <path d="M460.84,260.1c-2.04-1.31-3.64-3.17-4.81-5.56-1.17-2.39-1.75-5.16-1.75-8.31s.6-5.87,1.8-8.28c1.2-2.41,2.83-4.26,4.91-5.56,2.07-1.3,4.39-1.94,6.95-1.94s4.88.65,6.95,1.94c2.07,1.3,3.71,3.15,4.91,5.56,1.2,2.41,1.8,5.17,1.8,8.28s-.62,5.87-1.85,8.28c-1.23,2.41-2.91,4.27-5.03,5.58-2.12,1.32-4.46,1.97-7.02,1.97s-4.81-.66-6.85-1.97ZM471.7,255.41c1.25-.78,2.26-1.94,3.04-3.5.78-1.56,1.17-3.44,1.17-5.67s-.37-4.1-1.12-5.64c-.75-1.54-1.73-2.69-2.97-3.47s-2.56-1.17-3.98-1.17-2.75.39-3.96,1.17-2.18,1.94-2.89,3.47c-.71,1.54-1.07,3.42-1.07,5.64,0,3.3.74,5.84,2.21,7.64,1.47,1.8,3.33,2.69,5.56,2.69,1.43,0,2.76-.39,4.01-1.17Z"/>
    <path d="M519.92,231.97c1.6,1,2.87,2.48,3.79,4.44.92,1.96,1.38,4.33,1.38,7.11v18.06h-5.49v-17.11c0-2.74-.6-4.84-1.8-6.31-1.2-1.46-2.84-2.19-4.91-2.19s-3.72.73-4.93,2.19c-1.21,1.46-1.82,3.57-1.82,6.31v17.11h-5.54v-41.11h5.54v14.06c.94-1.3,2.13-2.3,3.57-3,1.44-.7,3.02-1.06,4.74-1.06,2.04,0,3.86.5,5.47,1.5Z"/>
    <path d="M556.93,248.63h-20.46c.16,2.44.96,4.41,2.38,5.89,1.43,1.48,3.18,2.22,5.25,2.22,2.98,0,5.09-1.43,6.32-4.28h5.98c-.81,2.81-2.28,5.12-4.4,6.92-2.12,1.8-4.76,2.69-7.9,2.69-2.56,0-4.85-.66-6.88-1.97-2.03-1.31-3.61-3.17-4.76-5.56-1.15-2.39-1.73-5.16-1.73-8.31s.56-5.92,1.68-8.31c1.12-2.39,2.69-4.23,4.72-5.53,2.02-1.3,4.35-1.94,6.97-1.94s4.78.63,6.76,1.89c1.98,1.26,3.52,3.03,4.62,5.31,1.1,2.28,1.65,4.9,1.65,7.86,0,1.15-.07,2.19-.19,3.11ZM551.34,243.52c-.03-2.33-.76-4.2-2.19-5.61-1.43-1.41-3.19-2.11-5.3-2.11-1.91,0-3.55.69-4.91,2.08-1.36,1.39-2.17,3.27-2.43,5.64h14.82Z"/>
    <path d="M571.77,231.77c1.35-.87,2.94-1.31,4.79-1.31v6.56h-1.41c-2.17,0-3.82.63-4.93,1.89-1.12,1.26-1.68,3.44-1.68,6.56v16.11h-5.54v-30.61h5.54v4.44c.81-1.56,1.89-2.77,3.23-3.64Z"/>
    <path d="M614.49,231.97c1.6,1,2.87,2.48,3.79,4.44.92,1.96,1.38,4.33,1.38,7.11v18.06h-5.49v-17.11c0-2.74-.6-4.84-1.8-6.31-1.2-1.46-2.84-2.19-4.91-2.19s-3.72.73-4.93,2.19c-1.21,1.46-1.82,3.57-1.82,6.31v17.11h-5.54v-41.11h5.54v14.06c.94-1.3,2.13-2.3,3.57-3,1.44-.7,3.02-1.06,4.74-1.06,2.04,0,3.86.5,5.47,1.5Z"/>
    <path d="M651.5,248.63h-20.46c.16,2.44.96,4.41,2.38,5.89,1.43,1.48,3.18,2.22,5.25,2.22,2.98,0,5.09-1.43,6.32-4.28h5.98c-.81,2.81-2.28,5.12-4.4,6.92-2.12,1.8-4.76,2.69-7.9,2.69-2.56,0-4.85-.66-6.88-1.97-2.03-1.31-3.61-3.17-4.76-5.56-1.15-2.39-1.73-5.16-1.73-8.31s.56-5.92,1.68-8.31c1.12-2.39,2.69-4.23,4.72-5.53,2.02-1.3,4.35-1.94,6.97-1.94s4.78.63,6.76,1.89c1.98,1.26,3.52,3.03,4.62,5.31,1.1,2.28,1.65,4.9,1.65,7.86,0,1.15-.07,2.19-.19,3.11ZM645.91,243.52c-.03-2.33-.76-4.2-2.19-5.61-1.43-1.41-3.19-2.11-5.3-2.11-1.91,0-3.55.69-4.91,2.08-1.36,1.39-2.17,3.27-2.43,5.64h14.82Z"/>
    <path d="M657.41,237.97c1.12-2.37,2.64-4.21,4.57-5.53,1.93-1.31,4.06-1.97,6.39-1.97,2.11,0,3.95.47,5.52,1.42,1.57.94,2.83,2.12,3.77,3.53v-4.44h5.59v30.61h-5.59v-4.56c-.94,1.44-2.22,2.65-3.84,3.61-1.62.96-3.47,1.44-5.54,1.44-2.3,0-4.41-.68-6.32-2.03-1.91-1.35-3.43-3.24-4.54-5.67-1.12-2.43-1.68-5.18-1.68-8.25s.56-5.8,1.68-8.17ZM676.51,240.74c-.76-1.56-1.76-2.74-2.99-3.56-1.23-.81-2.56-1.22-3.98-1.22s-2.75.4-3.99,1.19c-1.23.8-2.23,1.96-2.99,3.5-.76,1.54-1.14,3.36-1.14,5.47s.38,3.96,1.14,5.56c.76,1.59,1.77,2.81,3.01,3.64,1.25.83,2.57,1.25,3.96,1.25s2.75-.41,3.98-1.22,2.23-2.01,2.99-3.58c.76-1.57,1.14-3.42,1.14-5.53s-.38-3.94-1.14-5.5Z"/>
    <path d="M696.51,220.47v41.11h-5.54v-41.11h5.54Z"/>
    <path d="M710.7,236.13v16.94c0,1.15.24,1.97.7,2.47.47.5,1.27.75,2.41.75h3.4v5.28h-4.37c-2.5,0-4.41-.67-5.74-2-1.33-1.33-1.99-3.5-1.99-6.5v-16.94h-3.16v-5.17h3.16v-10.45h5.59v10.45h6.51v5.17h-6.51Z"/>
    <path d="M742.07,231.97c1.6,1,2.87,2.48,3.79,4.44.92,1.96,1.38,4.33,1.38,7.11v18.06h-5.49v-17.11c0-2.74-.6-4.84-1.8-6.31-1.2-1.46-2.84-2.19-4.91-2.19s-3.72.73-4.93,2.19c-1.21,1.46-1.82,3.57-1.82,6.31v17.11h-5.54v-41.11h5.54v14.06c.94-1.3,2.13-2.3,3.57-3,1.44-.7,3.02-1.06,4.74-1.06,2.04,0,3.86.5,5.47,1.5Z"/>
  </g>
  <g>
    <g>
      <path d="M287.38,200.97c.29,4.47-1.01,6.71-3.89,6.71h-30.24c-2.88,0-4.32-2.24-4.32-6.71V57.8c0-4.47,1.44-6.71,4.32-6.71h22.89c2.88,0,5.04,2.01,6.91,5.37l16.99,31.54c1.3,2.24,2.3,4.47,4.32,4.47,2.3,0,3.02-2.68,2.88-5.59l-1.58-29.08c-.29-4.47,1.15-6.71,4.03-6.71h30.24c2.88,0,4.32,2.24,4.32,6.71v143.17c0,4.47-1.44,6.71-4.32,6.71h-22.89c-2.88,0-5.04-1.79-7.06-5.15l-16.7-29.53c-1.15-2.24-2.3-4.25-4.32-4.25-2.3,0-3.17,2.68-3.02,5.59l1.44,26.62Z"/>
      <g>
        <g>
          <path d="M414.92,133.78c-3.6,0-5.33,2.68-5.33,8.28v58.9c0,4.47-1.44,6.71-4.32,6.71h-31.68c-2.88,0-4.32-2.24-4.32-6.71v-58.9c0-5.59-1.73-8.28-5.33-8.28h-10.51c-2.88,0-4.32-2.24-4.32-6.71V57.78c0-4.47,1.44-6.71,4.32-6.71h71.99c2.88,0,4.32,2.24,4.32,6.71v69.28c0,4.47-1.44,6.71-4.32,6.71h-10.51Z"/>
          <path d="M557.34,127.61c0,4.47,1.44,6.71,4.32,6.71h23.04c2.88,0,4.32,2.24,4.32,6.71v60.93c0,4.47-1.44,6.71-4.32,6.71h-63.35c-2.88,0-4.32-2.24-4.32-6.71V58.78c0-4.47,1.44-6.71,4.32-6.71h31.68c2.88,0,4.32,2.24,4.32,6.71v68.82Z"/>
          <path d="M634.23,126.94c0,4.47,1.44,6.71,4.32,6.71h23.04c2.88,0,4.32,2.24,4.32,6.71v61.6c0,4.47-1.44,6.71-4.32,6.71h-63.35c-2.88,0-4.32-2.24-4.32-6.71V58.78c0-4.47,1.44-6.71,4.32-6.71h31.68c2.88,0,4.32,2.24,4.32,6.71v68.15Z"/>
        </g>
        <path d="M60.59,96.3c-1.63,0-2.81.63-3.53,1.89-.72,1.26-.75,2.78-.07,4.56.96,2.53,3.02,4.27,6.19,5.23,3.17.97,6.86,1.45,11.09,1.45,3.07,0,6.19-.22,9.36-.67s6.29-1.04,9.36-1.78c3.36-.74,6.45-1.34,9.29-1.78,2.83-.45,5.49-.67,7.99-.67,5.95,0,10.82,1.08,14.61,3.23,3.79,2.15,6.79,5.2,9,9.13,2.21,3.93,3.74,8.68,4.61,14.24.86,5.56,1.3,11.76,1.3,18.59,0,8.61-.62,16.47-1.87,23.59-1.25,7.12-3.17,13.24-5.76,18.36-2.59,5.12-5.93,9.05-10.01,11.8-4.08,2.75-9,4.12-14.76,4.12h-59.54c-2.42,0-4.39-1.96-4.39-4.39v-35.74c0-2.42,1.96-4.39,4.39-4.39h45.43c5.57,0,10.29-1.7,14.18-5.12,3.89-3.41,6.91-7.38,9.07-11.91,2.16-4.52,3.38-9.05,3.67-13.58.29-4.52-.38-7.97-2.02-10.35-.86-1.34-2.02-2-3.46-2-1.54,0-3.31.82-5.33,2.45-2.02,1.63-4.2,3.64-6.55,6.01-2.35,2.38-4.87,4.97-7.56,7.79-2.69,2.82-5.52,5.34-8.5,7.57-3.26,2.53-6.34,4.31-9.22,5.34-2.88,1.04-5.67,1.56-8.35,1.56-4.71,0-8.91-1.52-12.6-4.56-3.7-3.04-6.82-7.05-9.36-12.02-2.54-4.97-4.49-10.61-5.83-16.92-1.34-6.31-2.02-12.72-2.02-19.25,0-8.31.84-15.39,2.52-21.26,1.68-5.86,4.03-10.65,7.06-14.36,3.02-3.71,6.65-6.42,10.87-8.12,4.22-1.7,8.93-2.56,14.11-2.56h74.98c2.42,0,4.39,1.96,4.39,4.39l-5,35.74c0,2.42-1.96,4.39-4.39,4.39H60.59Z"/>
        <path d="M454.55,209.01c-2.77,0-5.34-.71-7.72-2.14-2.38-1.43-4.48-3.5-6.28-6.2-1.81-2.71-3.21-6.01-4.21-9.93-1-3.91-1.5-8.35-1.5-13.31,0-5.41.56-10.07,1.67-13.99,1.11-3.91,2.59-7.25,4.44-10.04,1.84-2.78,3.98-5,6.4-6.66,2.42-1.65,4.9-2.97,7.43-3.95,2.54-.98,5.07-1.61,7.61-1.92,2.54-.3,4.84-.45,6.92-.45h5.24c1.57,0,2.88-.23,3.92-.68,1.04-.45,1.81-1.2,2.31-2.26.5-1.05.67-2.63.52-4.74,0-.15-.06-.45-.17-.9-.11-.45-.35-.94-.69-1.47-.35-.53-.83-1.02-1.44-1.47-.62-.45-1.5-.68-2.65-.68-2,0-4.84.98-8.53,2.93-4.77,2.56-8.88,3.84-12.33,3.84s-6.61-1.05-9.22-3.16c-2.61-2.1-4.77-5.04-6.46-8.8-1.69-3.76-2.94-8.23-3.75-13.42-.81-5.19-1.21-10.79-1.21-16.81,0-7.07.67-13.23,2.02-18.5,1.34-5.26,3.23-9.62,5.65-13.09,2.42-3.46,5.32-6.01,8.7-7.67,3.38-1.65,7.15-2.48,11.3-2.48h45.38c1.93,0,3.49,1.56,3.49,3.49v38.13c0,1.93-1.56,3.49-3.49,3.49h-56.1c-1.31,0-2.25.64-2.82,1.92-.58,1.28-.6,2.82-.06,4.62.69,2.41,2,4.1,3.92,5.08,1.92.98,4.15,1.47,6.69,1.47,4.15,0,8.49-1.05,13.03-3.16,4.46-2.1,8.8-3.16,13.03-3.16,2.46,0,4.76.42,6.92,1.24,2.15.83,4.03,2.18,5.65,4.06,1.61,1.88,2.9,4.36,3.86,7.44.96,3.08,1.44,6.88,1.44,11.39,0,6.47-.98,11.54-2.94,15.23-1.96,3.69-4.48,6.43-7.55,8.23-3.07,1.81-6.49,2.93-10.26,3.38-3.77.45-7.45.68-11.07.68h-8.53c-2.61,0-4.8.38-6.57,1.13-2.46.9-3.61,2.56-3.46,4.96.08,1.05.35,1.84.81,2.37.46.53,1.34.79,2.65.79h51.37c1.93,0,3.49,1.56,3.49,3.49v38.13c0,1.93-1.56,3.49-3.49,3.49h-53.33Z"/>
        <path d="M690.03,209.01c-2.77,0-5.34-.71-7.72-2.14-2.38-1.43-4.48-3.5-6.28-6.2-1.81-2.71-3.21-6.01-4.21-9.93-1-3.91-1.5-8.35-1.5-13.31,0-5.41.56-10.07,1.67-13.99,1.11-3.91,2.59-7.25,4.44-10.04,1.84-2.78,3.98-5,6.4-6.66,2.42-1.65,4.9-2.97,7.43-3.95,2.54-.98,5.07-1.61,7.61-1.92,2.54-.3,4.84-.45,6.92-.45h5.24c1.57,0,2.88-.23,3.92-.68,1.04-.45,1.81-1.2,2.31-2.26.5-1.05.67-2.63.52-4.74,0-.15-.06-.45-.17-.9-.11-.45-.35-.94-.69-1.47-.35-.53-.83-1.02-1.44-1.47-.62-.45-1.5-.68-2.65-.68-2,0-4.84.98-8.53,2.93-4.77,2.56-8.88,3.84-12.33,3.84s-6.61-1.05-9.22-3.16c-2.61-2.1-4.77-5.04-6.46-8.8-1.69-3.76-2.94-8.23-3.75-13.42-.81-5.19-1.21-10.79-1.21-16.81,0-7.07.67-13.23,2.02-18.5,1.34-5.26,3.23-9.62,5.65-13.09,2.42-3.46,5.32-6.01,8.7-7.67,3.38-1.65,7.15-2.48,11.3-2.48h45.38c1.93,0,3.49,1.56,3.49,3.49v38.13c0,1.93-1.56,3.49-3.49,3.49h-56.1c-1.31,0-2.25.64-2.82,1.92-.58,1.28-.6,2.82-.06,4.62.69,2.41,2,4.1,3.92,5.08,1.92.98,4.15,1.47,6.69,1.47,4.15,0,8.49-1.05,13.03-3.16,4.46-2.1,8.8-3.16,13.03-3.16,2.46,0,4.76.42,6.92,1.24,2.15.83,4.03,2.18,5.65,4.06,1.61,1.88,2.9,4.36,3.86,7.44.96,3.08,1.44,6.88,1.44,11.39,0,6.47-.98,11.54-2.94,15.23-1.96,3.69-4.48,6.43-7.55,8.23-3.07,1.81-6.49,2.93-10.26,3.38-3.77.45-7.45.68-11.07.68h-8.53c-2.61,0-4.8.38-6.57,1.13-2.46.9-3.61,2.56-3.46,4.96.08,1.05.35,1.84.81,2.37.46.53,1.34.79,2.65.79h51.37c1.93,0,3.49,1.56,3.49,3.49v38.13c0,1.93-1.56,3.49-3.49,3.49h-53.33Z"/>
      </g>
    </g>
    <path d="M243.51,201.72l-19.67-143.5c-.58-4.47-2.33-6.48-5.25-6.48h-55.07c-2.91,0-4.66,2.01-5.24,6.48l-19.67,143.5c-.58,4.47.58,6.48,3.5,6.48h38.03c2.91,0,4.52-2.24,4.66-6.71l1.02-21.24c.15-4.47,1.75-6.71,4.66-6.71h1.17c2.91,0,4.52,2.24,4.66,6.71l1.02,21.24c.15,4.47,1.75,6.71,4.66,6.71h38.03c2.91,0,4.08-2.01,3.5-6.48ZM191.06,141.42c-6.63,0-9.21-2.21-8.84-6.37l2.95-27.94c.37-2.45,2.21-3.68,5.89-3.68s5.53,1.23,5.89,3.68l2.95,27.94c.37,4.17-2.58,6.37-8.84,6.37Z"/>
  </g>
</svg>