<?xml version="1.0" encoding="UTF-8" standalone="no"?>
<!DOCTYPE svg PUBLIC "-//W3C//DTD SVG 1.1//EN" "http://www.w3.org/Graphics/SVG/1.1/DTD/svg11.dtd">
<svg xmlns="http://www.w3.org/2000/svg" version="1.1" viewBox="0.00 0.00 916.00 272.00">
<path fill="#000000" d="
  M 821.50 94.15
  C 813.06 94.18 816.44 105.22 820.41 108.05
  C 825.48 111.67 836.33 110.09 841.80 107.76
  C 849.29 104.56 854.31 102.51 861.74 102.51
  C 871.17 102.52 877.85 107.55 880.88 116.21
  Q 882.03 119.49 882.67 126.89
  C 883.45 136.03 882.79 146.72 877.10 153.98
  C 870.06 162.98 861.13 164.10 849.00 164.71
  Q 841.71 165.08 832.51 165.22
  Q 827.78 165.29 824.15 167.87
  C 820.69 170.34 820.49 176.27 826.04 176.46
  Q 835.27 176.76 854.58 176.53
  C 865.68 176.40 875.60 177.01 887.28 176.87
  Q 892.40 176.80 892.55 181.76
  Q 893.28 205.71 892.78 226.77
  C 892.68 231.32 889.19 231.04 885.18 231.12
  Q 869.47 231.47 828.62 231.54
  Q 820.62 231.55 817.12 230.04
  Q 810.07 226.99 806.23 220.29
  C 800.02 209.43 799.52 197.74 800.23 185.74
  C 801.05 171.79 807.64 158.58 820.60 152.35
  C 828.91 148.36 836.98 147.67 845.99 147.84
  Q 851.50 147.95 853.73 146.50
  C 857.47 144.08 857.65 138.93 855.17 135.48
  Q 851.85 130.85 845.23 133.74
  C 841.13 135.53 835.58 139.05 831.43 140.21
  Q 816.03 144.49 807.52 130.46
  C 801.48 120.48 799.68 105.93 799.51 93.43
  C 799.31 79.46 800.02 68.21 805.64 56.13
  C 810.07 46.60 819.69 39.76 830.29 39.63
  Q 864.72 39.20 888.24 39.73
  Q 892.26 39.82 892.32 44.27
  Q 892.82 84.39 892.78 87.76
  Q 892.71 93.31 887.50 93.65
  Q 878.81 94.23 875.25 94.21
  Q 849.46 94.06 821.50 94.15
  Z"
/>
<path fill="#000000" d="
  M 533.51 94.86
  C 530.97 94.85 528.86 96.78 528.75 99.46
  Q 528.34 109.73 538.52 110.89
  Q 547.54 111.91 555.45 108.38
  C 561.83 105.52 567.23 103.16 574.01 103.08
  C 585.02 102.95 592.16 110.26 594.51 120.51
  Q 596.38 128.68 595.33 140.53
  C 594.01 155.40 583.43 163.73 569.19 165.03
  Q 560.54 165.82 546.41 165.89
  C 541.89 165.91 535.51 167.46 534.50 172.47
  Q 533.50 177.43 538.82 177.39
  Q 566.47 177.19 599.49 177.43
  C 604.62 177.47 605.18 180.06 605.30 184.70
  Q 605.82 204.90 605.43 226.77
  Q 605.34 231.74 601.04 231.84
  Q 576.81 232.41 543.50 232.28
  C 537.27 232.26 532.37 232.67 527.66 230.12
  C 511.69 221.47 510.67 196.01 513.63 180.62
  C 516.57 165.30 524.89 155.71 539.54 150.87
  C 545.43 148.93 552.74 149.21 560.73 149.18
  C 564.60 149.16 568.40 147.35 568.89 142.96
  C 569.46 137.81 567.00 133.12 561.21 133.88
  C 555.99 134.57 550.08 138.76 546.46 140.20
  C 532.95 145.57 523.05 139.51 517.86 126.88
  Q 515.66 121.51 514.86 117.69
  Q 509.92 93.96 513.90 70.91
  Q 514.68 66.40 517.81 58.80
  Q 523.04 46.11 535.01 41.90
  Q 540.02 40.14 552.70 40.15
  Q 565.79 40.16 598.93 40.10
  C 603.56 40.09 604.51 42.40 604.60 46.78
  Q 605.12 72.27 604.97 88.22
  C 604.94 91.53 604.41 94.19 600.31 94.61
  Q 592.55 95.39 582.50 95.27
  Q 558.61 94.99 533.51 94.86
  Z"
/>
<path fill="#000000" d="
  M 505.31 133.74
  C 505.39 136.74 504.64 140.56 501.04 140.57
  Q 496.06 140.58 488.01 140.76
  C 483.12 140.86 481.20 144.92 481.11 149.53
  Q 480.56 176.62 481.28 211.00
  Q 481.38 215.83 480.83 224.82
  Q 480.49 230.31 474.91 230.67
  Q 464.62 231.33 438.29 230.97
  C 433.44 230.91 432.86 227.58 432.47 222.99
  Q 432.09 218.46 432.31 197.58
  C 432.45 184.94 431.98 167.50 432.10 151.25
  C 432.14 146.10 430.81 140.84 424.50 140.90
  Q 414.53 141.00 412.65 140.88
  C 407.32 140.56 407.29 133.58 407.33 129.27
  Q 407.68 92.34 407.20 59.50
  Q 407.05 49.16 407.56 46.05
  Q 408.45 40.69 413.81 40.64
  Q 471.54 40.13 499.98 40.43
  Q 504.97 40.48 505.03 45.83
  C 505.25 63.21 505.41 90.01 505.19 113.41
  Q 505.09 124.92 505.31 133.74
  Z"
/>
<path fill="#000000" d="
  M 333.51 183.90
  C 330.71 183.90 329.78 189.57 329.91 191.52
  Q 331.30 211.17 331.59 226.05
  Q 331.68 230.71 326.99 230.95
  C 315.44 231.56 304.64 231.16 292.54 231.45
  Q 285.62 231.61 285.49 224.64
  Q 285.41 220.64 285.39 201.00
  Q 285.34 151.79 285.55 103.56
  C 285.62 87.18 285.06 65.32 285.59 46.47
  Q 285.71 42.14 290.76 41.70
  Q 304.79 40.47 319.19 41.45
  Q 320.67 41.55 323.22 43.59
  Q 325.05 45.06 327.94 50.39
  Q 341.32 75.13 347.11 85.87
  Q 348.77 88.96 351.08 91.13
  A 1.66 1.65 69.4 0 0 352.02 91.56
  C 357.09 92.08 356.58 84.90 356.27 81.50
  Q 354.83 65.67 354.46 47.76
  C 354.31 40.68 358.88 40.99 364.96 40.90
  Q 380.09 40.66 390.75 40.68
  C 395.52 40.69 400.81 40.73 400.87 47.26
  Q 401.49 114.80 401.12 173.42
  C 401.01 190.47 401.95 209.11 401.08 224.76
  Q 400.75 230.72 395.28 230.95
  Q 380.72 231.55 367.99 230.99
  C 363.18 230.78 360.30 225.80 358.17 221.86
  Q 356.01 217.85 342.39 193.65
  Q 340.62 190.51 337.74 186.31
  Q 336.09 183.91 333.51 183.90
  Z"
/>
<path fill="#000000" d="
  M 793.76 225.75
  C 793.44 230.50 790.00 231.04 785.51 231.10
  Q 749.87 231.57 715.08 231.43
  C 706.38 231.40 706.56 227.54 706.56 220.32
  Q 706.59 122.96 705.87 76.26
  Q 705.59 57.83 706.20 46.75
  Q 706.52 41.00 712.44 40.88
  Q 728.82 40.55 748.44 40.85
  C 754.05 40.94 755.07 44.75 755.08 49.50
  Q 755.13 98.20 755.29 132.49
  C 755.32 139.48 758.88 139.92 764.94 140.05
  Q 773.26 140.24 786.72 140.07
  C 789.45 140.04 792.38 140.89 793.14 143.99
  Q 793.85 146.85 793.80 148.26
  Q 793.06 172.99 793.88 212.77
  Q 794.06 221.27 793.76 225.75
  Z"
/>
<path fill="#000000" d="
  M 663.46 139.98
  Q 664.61 141.35 668.00 141.42
  Q 679.45 141.66 692.37 141.54
  Q 696.15 141.51 697.55 142.37
  Q 700.00 143.87 700.00 146.76
  Q 700.04 171.68 700.42 222.25
  C 700.48 229.79 698.70 231.49 691.25 231.50
  Q 643.13 231.54 621.41 231.72
  C 619.11 231.74 616.83 231.85 614.99 230.39
  C 612.70 228.58 612.68 223.97 612.68 221.25
  Q 612.64 185.04 612.65 184.50
  Q 613.00 165.11 612.77 154.34
  C 612.30 131.91 612.74 114.52 612.30 92.25
  C 612.05 80.09 612.10 62.97 612.29 50.25
  C 612.35 46.18 612.56 41.51 618.04 41.43
  Q 640.19 41.10 654.99 41.30
  C 661.29 41.39 661.34 46.81 661.40 51.67
  Q 661.89 94.88 661.70 127.00
  C 661.67 131.34 661.38 135.77 662.96 139.21
  A 3.54 3.42 -79.0 0 0 663.46 139.98
  Z"
/>
<path fill="#000000" d="
  M 277.52 227.26
  C 277.53 229.80 275.71 231.44 273.29 231.43
  Q 250.74 231.38 229.28 231.64
  C 224.04 231.71 222.93 226.89 222.79 222.50
  Q 222.30 207.04 221.97 198.95
  C 221.78 194.56 221.04 189.30 215.46 189.34
  C 209.12 189.38 207.92 195.49 207.87 200.52
  Q 207.69 219.09 207.23 225.21
  Q 206.76 231.50 200.70 231.58
  Q 170.02 231.99 157.26 231.76
  C 151.90 231.67 151.81 227.93 152.32 223.36
  Q 153.14 216.05 156.52 192.88
  C 159.30 173.83 162.38 147.79 165.92 120.39
  Q 167.33 109.47 168.15 102.57
  Q 171.64 73.10 175.74 47.27
  C 176.53 42.29 179.99 41.62 184.70 41.59
  Q 221.27 41.38 247.00 41.45
  C 252.44 41.46 253.80 45.95 254.42 50.33
  Q 262.40 106.82 273.18 190.07
  Q 273.62 193.40 275.51 205.40
  Q 277.46 217.80 277.52 227.26
  Z
  M 207.51 114.34
  A 1.27 1.27 0.0 0 1 205.55 115.00
  Q 202.71 112.95 199.53 109.62
  Q 197.79 107.81 195.80 108.89
  A 1.83 1.81 0.4 0 0 195.07 109.60
  Q 189.90 118.84 189.71 119.18
  C 188.46 121.40 187.70 123.73 190.69 124.84
  Q 197.65 127.43 199.70 128.42
  A 1.19 1.18 -53.6 0 1 199.99 130.35
  L 199.22 131.08
  A 1.94 1.89 14.4 0 1 198.45 131.52
  Q 193.00 133.15 191.33 133.78
  C 187.97 135.04 188.17 137.01 189.92 139.93
  Q 192.53 144.31 194.71 148.88
  A 1.63 1.61 -88.3 0 0 195.37 149.59
  Q 197.71 150.91 199.30 149.41
  Q 202.68 146.22 206.13 142.68
  Q 207.00 141.79 208.16 142.11
  A 1.34 1.32 -76.1 0 1 209.10 143.69
  Q 207.44 151.14 206.42 159.65
  C 206.05 162.74 205.14 165.62 209.00 166.01
  Q 209.89 166.10 218.67 166.33
  C 222.71 166.44 225.14 165.92 224.13 161.14
  Q 223.25 156.98 221.09 144.42
  Q 220.82 142.91 221.31 142.36
  A 1.70 1.60 44.5 0 1 223.77 142.41
  Q 226.97 145.89 230.01 148.78
  Q 233.20 151.82 235.54 148.27
  Q 236.21 147.26 240.17 139.95
  C 241.46 137.56 242.26 134.71 239.32 133.65
  Q 233.31 131.50 231.30 130.74
  A 1.29 1.29 0.0 0 1 230.72 128.77
  Q 230.99 128.42 232.31 127.80
  Q 235.36 126.37 239.18 125.02
  C 241.71 124.12 241.83 122.71 240.98 120.54
  Q 240.47 119.24 234.96 109.64
  A 2.66 2.50 69.2 0 0 232.27 108.33
  C 231.16 108.53 227.30 112.62 224.09 115.65
  A 1.64 1.59 -37.7 0 1 221.59 115.37
  Q 221.20 114.72 221.39 113.08
  Q 222.08 106.94 223.59 97.37
  C 224.00 94.79 223.26 92.85 220.49 92.85
  Q 210.71 92.85 209.56 92.87
  Q 205.29 92.94 206.03 96.72
  Q 207.67 105.02 207.84 109.49
  Q 207.97 112.84 207.51 114.34
  Z"
/>
<path fill="#000000" d="
  M 35.23 182.72
  C 35.32 180.21 37.76 179.10 40.03 179.01
  Q 69.78 177.84 89.24 179.01
  Q 90.52 179.09 97.76 178.54
  C 111.39 177.52 121.47 165.70 125.59 153.64
  C 128.12 146.24 129.98 137.93 127.18 130.89
  C 123.24 120.96 114.18 127.46 109.64 132.41
  Q 103.45 139.19 93.89 148.38
  C 87.64 154.39 79.74 160.57 71.06 162.18
  Q 54.88 165.19 44.46 151.71
  Q 36.84 141.85 33.44 128.79
  Q 27.07 104.23 31.14 78.70
  C 33.26 65.46 40.23 52.70 52.32 46.83
  Q 59.79 43.20 69.76 43.02
  Q 120.21 42.08 161.54 42.54
  C 167.86 42.61 168.00 46.68 167.33 52.04
  Q 164.07 77.95 161.63 91.31
  Q 160.68 96.51 154.99 96.56
  Q 116.36 96.93 73.20 96.56
  C 67.90 96.52 60.82 96.92 56.38 96.81
  Q 52.80 96.72 51.49 98.23
  C 47.10 103.30 51.81 109.32 56.92 111.10
  Q 66.12 114.32 77.76 112.97
  C 88.22 111.76 99.43 108.85 110.89 107.23
  C 118.44 106.16 126.81 107.32 133.13 110.58
  C 143.08 115.70 148.37 127.31 149.84 138.44
  Q 152.53 158.86 150.49 178.33
  C 148.84 194.07 146.70 208.54 137.02 220.79
  Q 133.50 225.24 128.38 227.92
  Q 121.31 231.62 114.98 231.71
  Q 63.82 232.47 38.87 231.77
  Q 35.00 231.67 34.92 227.19
  Q 34.49 203.96 35.23 182.72
  Z"
/>
</svg>
