<?xml version="1.0" encoding="UTF-8" standalone="no"?>
<!DOCTYPE svg PUBLIC "-//W3C//DTD SVG 1.1//EN" "http://www.w3.org/Graphics/SVG/1.1/DTD/svg11.dtd">
<svg xmlns="http://www.w3.org/2000/svg" version="1.1" viewBox="0.00 0.00 970.00 257.00">
<path fill="#000000" d="
  M 667.21 230.73
  L 667.21 228.28
  A 0.75 0.75 0.0 0 1 667.96 227.53
  L 688.63 227.53
  A 0.75 0.75 0.0 0 0 689.38 226.78
  L 689.38 29.02
  A 0.75 0.75 0.0 0 0 688.63 28.27
  L 667.97 28.27
  A 0.75 0.75 0.0 0 1 667.22 27.52
  L 667.22 25.02
  A 0.75 0.75 0.0 0 1 667.97 24.27
  L 713.37 24.27
  A 0.75 0.75 0.0 0 1 714.12 25.02
  L 714.12 226.74
  A 0.75 0.75 0.0 0 0 714.87 227.49
  L 735.51 227.49
  A 0.75 0.75 0.0 0 1 736.26 228.24
  L 736.26 230.73
  A 0.75 0.75 0.0 0 1 735.51 231.48
  L 667.96 231.48
  A 0.75 0.75 0.0 0 1 667.21 230.73
  Z"
/>
<path fill="#000000" d="
  M 821.29 228.13
  L 821.27 230.72
  A 0.69 0.69 0.0 0 1 820.58 231.41
  L 753.26 231.37
  A 0.97 0.97 0.0 0 1 752.29 230.42
  L 752.24 228.42
  A 0.89 0.89 0.0 0 1 753.12 227.51
  L 774.03 227.34
  A 0.43 0.43 0.0 0 0 774.46 226.91
  L 774.47 29.34
  A 0.98 0.97 0.3 0 0 773.50 28.37
  L 753.28 28.29
  A 0.97 0.97 0.0 0 1 752.31 27.33
  L 752.30 25.43
  A 1.04 1.04 0.0 0 1 753.34 24.39
  L 798.36 24.28
  A 0.84 0.84 0.0 0 1 799.20 25.12
  L 799.17 226.81
  A 0.56 0.56 0.0 0 0 799.73 227.37
  L 820.60 227.44
  A 0.70 0.69 0.4 0 1 821.29 228.13
  Z"
/>
<path fill="#000000" d="
  M 499.89 80.06
  A 0.49 0.49 0.0 0 1 500.35 80.72
  L 490.58 107.32
  A 0.65 0.64 -79.8 0 0 491.18 108.19
  L 520.88 108.19
  A 0.64 0.64 0.0 0 1 521.48 109.05
  L 520.55 111.59
  A 0.95 0.95 0.0 0 1 519.66 112.21
  L 489.70 112.21
  A 0.83 0.82 -79.7 0 0 488.93 112.75
  Q 468.58 169.33 455.97 204.69
  Q 453.61 211.29 452.77 215.01
  C 451.36 221.29 451.20 230.53 459.50 231.06
  Q 467.21 231.55 473.53 226.22
  Q 483.78 217.56 488.99 206.05
  A 0.82 0.81 22.2 0 1 490.02 205.62
  L 492.03 206.35
  A 0.80 0.79 -67.3 0 1 492.47 207.44
  C 487.58 217.62 481.58 226.10 471.47 231.44
  C 462.63 236.11 446.36 236.99 438.91 228.84
  C 430.18 219.28 435.58 204.89 439.57 193.79
  Q 446.68 174.00 468.70 113.04
  A 0.62 0.62 0.0 0 0 468.11 112.21
  L 444.14 112.21
  A 0.87 0.87 0.0 0 1 443.32 111.04
  L 444.01 109.17
  A 1.50 1.50 0.0 0 1 445.42 108.19
  L 469.47 108.19
  A 0.97 0.97 0.0 0 0 470.38 107.55
  L 480.25 80.69
  A 0.96 0.96 0.0 0 1 481.15 80.06
  L 499.89 80.06
  Z"
/>
<path fill="#000000" d="
  M 58.61 227.12
  C 69.69 221.06 75.15 210.43 70.85 198.14
  Q 69.01 192.91 65.27 187.99
  Q 55.54 175.22 45.54 161.72
  Q 43.86 159.45 41.51 155.45
  C 34.20 142.98 40.56 127.36 50.03 118.25
  Q 65.84 103.07 88.18 104.64
  C 100.36 105.51 113.62 113.16 110.35 127.58
  Q 109.17 132.77 104.70 134.49
  C 96.00 137.86 86.58 133.13 89.72 122.38
  A 0.85 0.70 76.3 0 1 89.84 122.13
  L 91.99 119.21
  A 2.25 2.24 -19.7 0 0 92.38 118.39
  C 94.04 111.58 89.82 108.70 83.37 108.53
  C 73.68 108.27 64.34 111.82 59.48 120.18
  Q 54.15 129.39 57.69 140.26
  Q 58.66 143.25 63.88 150.46
  Q 70.60 159.73 85.09 178.40
  C 91.27 186.35 91.41 200.06 87.58 208.57
  Q 83.61 217.41 75.43 223.37
  Q 57.04 236.77 34.75 234.55
  C 23.13 233.40 8.21 227.31 7.34 213.79
  C 7.02 208.90 8.69 204.32 13.10 201.80
  C 17.00 199.57 22.90 198.35 26.50 201.21
  C 30.45 204.34 28.75 209.41 26.84 213.72
  A 4.35 4.21 62.5 0 0 26.51 214.83
  C 25.26 222.57 26.95 228.55 34.97 230.30
  Q 47.73 233.07 58.61 227.12
  Z"
/>
<path fill="#000000" d="
  M 232.16 121.74
  L 236.51 109.22
  A 1.56 1.56 0.0 0 1 237.99 108.16
  L 256.00 108.16
  A 0.72 0.71 -80.0 0 1 256.67 109.12
  Q 238.37 159.75 225.56 195.53
  C 223.42 201.50 215.22 223.77 222.08 228.32
  C 225.43 230.53 231.77 229.11 234.61 227.49
  C 243.24 222.58 249.03 213.77 253.08 204.66
  A 0.29 0.29 0.0 0 1 253.49 204.53
  L 256.70 206.38
  A 0.19 0.19 0.0 0 1 256.78 206.61
  C 250.93 220.51 237.86 234.40 221.97 234.85
  C 208.35 235.24 200.01 229.08 201.73 214.45
  Q 202.51 207.91 204.50 202.40
  A 0.45 0.45 0.0 0 0 203.73 201.96
  Q 199.86 206.61 195.09 212.09
  Q 185.59 223.00 173.66 229.40
  C 159.66 236.91 141.04 237.87 129.57 225.48
  C 121.14 216.38 119.58 201.02 121.74 188.98
  Q 123.77 177.70 129.49 166.71
  C 139.36 147.76 153.56 133.04 170.90 120.67
  C 184.50 110.98 209.88 97.00 225.34 109.41
  Q 231.11 114.03 231.31 121.61
  A 0.44 0.44 0.0 0 0 232.16 121.74
  Z
  M 141.05 205.12
  C 140.06 214.19 141.27 228.28 151.82 230.63
  C 160.26 232.51 169.63 228.88 176.42 224.10
  Q 195.25 210.86 206.73 191.12
  A 14.07 13.40 -21.3 0 0 207.81 188.81
  Q 223.88 144.41 226.84 136.07
  C 229.92 127.41 229.86 117.32 222.09 111.38
  C 216.29 106.95 205.99 108.23 199.62 110.87
  C 183.69 117.48 171.31 132.12 162.46 146.72
  C 151.92 164.09 143.28 184.71 141.05 205.12
  Z"
/>
<path fill="#000000" d="
  M 642.66 199.40
  A 0.73 0.73 0.0 0 1 643.36 200.33
  Q 639.92 212.58 633.02 220.10
  Q 619.70 234.61 598.47 235.44
  Q 582.25 236.08 568.51 231.02
  C 541.81 221.20 527.21 196.37 528.29 168.42
  C 529.87 127.74 571.07 93.55 611.44 107.78
  C 633.96 115.72 646.11 136.11 645.83 159.28
  A 0.92 0.91 -89.7 0 1 644.92 160.19
  L 557.88 160.19
  A 0.45 0.45 0.0 0 0 557.43 160.61
  Q 556.85 169.93 557.08 177.20
  C 557.45 189.25 558.14 201.15 562.83 211.39
  Q 570.72 228.63 588.66 231.10
  C 597.64 232.34 609.11 231.09 617.48 226.96
  C 629.14 221.20 634.89 212.14 638.84 199.98
  A 0.84 0.83 -80.8 0 1 639.63 199.40
  L 642.66 199.40
  Z
  M 558.10 156.17
  L 615.89 156.17
  A 0.86 0.85 -87.4 0 0 616.74 155.39
  Q 617.15 150.54 617.13 145.84
  C 617.09 137.03 617.07 129.63 614.10 122.17
  Q 609.33 110.18 596.26 108.76
  C 566.16 105.49 558.87 132.00 557.70 155.75
  A 0.40 0.39 2.0 0 0 558.10 156.17
  Z"
/>
<path fill="#000000" d="
  M 956.77 199.39
  A 0.73 0.73 0.0 0 1 957.47 200.32
  Q 954.03 212.57 947.13 220.09
  Q 933.82 234.60 912.59 235.44
  Q 896.37 236.08 882.63 231.02
  C 855.92 221.21 841.32 196.38 842.40 168.43
  C 843.97 127.75 885.17 93.55 925.54 107.78
  C 948.06 115.71 960.21 136.10 959.94 159.27
  A 0.92 0.91 -89.7 0 1 959.03 160.18
  L 871.99 160.19
  A 0.45 0.45 0.0 0 0 871.54 160.61
  Q 870.96 169.93 871.19 177.20
  C 871.56 189.25 872.25 201.15 876.94 211.39
  Q 884.84 228.63 902.78 231.10
  C 911.76 232.34 923.23 231.09 931.60 226.95
  C 943.25 221.19 949.00 212.13 952.95 199.97
  A 0.84 0.83 -80.8 0 1 953.74 199.39
  L 956.77 199.39
  Z
  M 872.19 156.17
  L 929.98 156.19
  A 0.86 0.85 -87.4 0 0 930.83 155.41
  Q 931.25 150.56 931.23 145.86
  C 931.19 137.05 931.17 129.65 928.20 122.19
  Q 923.43 110.19 910.36 108.77
  C 880.26 105.50 872.97 132.00 871.79 155.75
  A 0.40 0.39 2.0 0 0 872.19 156.17
  Z"
/>
<path fill="#000000" d="
  M 325.01 143.22
  A 0.45 0.44 -38.1 0 0 325.79 143.31
  Q 337.17 127.49 351.82 116.35
  C 360.94 109.42 372.36 105.22 384.24 107.00
  C 394.36 108.51 402.87 115.71 404.04 126.09
  Q 404.76 132.48 403.02 137.53
  Q 390.96 172.40 380.65 201.39
  Q 378.29 208.01 376.64 213.61
  C 375.24 218.35 373.74 230.11 381.21 231.02
  C 394.02 232.58 404.30 218.17 410.27 206.14
  A 0.85 0.84 22.7 0 1 411.30 205.72
  L 412.90 206.28
  A 0.86 0.85 22.7 0 1 413.39 207.46
  C 407.64 219.14 402.07 226.80 391.38 232.30
  C 383.67 236.27 370.83 235.72 363.31 231.13
  C 352.27 224.40 357.16 209.24 360.71 199.16
  Q 378.72 148.04 380.94 141.69
  C 382.98 135.81 385.19 130.10 386.19 124.50
  C 387.23 118.69 384.94 111.81 378.47 110.81
  C 369.18 109.38 359.25 115.24 352.29 120.79
  Q 327.46 140.61 316.39 171.14
  Q 301.26 212.86 294.92 230.89
  A 0.84 0.83 -79.9 0 1 294.14 231.44
  L 275.53 231.44
  A 0.50 0.50 0.0 0 1 275.06 230.78
  L 315.97 113.05
  A 0.63 0.63 0.0 0 0 315.37 112.21
  L 290.86 112.21
  A 0.63 0.63 0.0 0 1 290.26 111.37
  L 291.08 109.01
  A 1.23 1.22 -80.1 0 1 292.23 108.19
  L 335.60 108.19
  A 0.77 0.77 0.0 0 1 336.33 109.20
  Q 326.54 138.62 325.09 142.81
  Q 324.98 143.14 325.01 143.22
  Z"
/>
</svg>
