<?xml version="1.0" encoding="UTF-8" standalone="no"?>
<!DOCTYPE svg PUBLIC "-//W3C//DTD SVG 1.1//EN" "http://www.w3.org/Graphics/SVG/1.1/DTD/svg11.dtd">
<svg xmlns="http://www.w3.org/2000/svg" version="1.1" viewBox="0.00 0.00 498.00 501.00">
<path fill="#f16978" d="
  M 282.54 189.59
  A 2.92 2.68 72.9 0 0 285.97 191.60
  Q 287.97 190.97 290.07 189.06
  Q 300.51 179.50 311.31 168.25
  C 320.72 158.47 329.00 151.15 338.58 141.77
  Q 341.23 139.17 342.79 138.80
  C 346.48 137.93 349.26 140.55 350.93 143.60
  Q 367.13 173.16 386.59 207.40
  Q 390.07 213.52 390.09 215.50
  Q 390.13 220.08 385.81 222.97
  Q 384.74 223.69 378.59 224.69
  A 12.19 10.16 -16.0 0 0 376.91 225.07
  C 373.68 226.00 368.76 228.10 364.98 229.21
  Q 349.18 233.84 337.64 238.25
  C 332.81 240.10 327.49 240.95 322.04 242.56
  Q 317.24 243.98 316.90 249.28
  C 316.44 256.35 322.21 258.91 328.15 260.62
  Q 351.49 267.36 373.40 275.09
  C 376.96 276.34 380.43 276.88 384.20 278.08
  Q 389.99 279.92 390.20 285.11
  Q 390.31 287.88 386.57 293.95
  Q 383.74 298.54 381.63 302.40
  Q 365.80 331.30 350.67 358.38
  C 347.01 364.95 341.87 363.34 337.43 358.69
  Q 334.36 355.46 317.27 338.81
  C 308.88 330.63 299.18 319.95 289.17 311.34
  Q 285.37 308.08 280.79 311.05
  C 275.83 314.26 276.80 318.19 277.78 324.09
  Q 279.84 336.52 284.61 366.95
  Q 284.86 368.55 284.83 371.36
  A 12.19 11.26 42.7 0 0 285.01 373.62
  Q 287.30 386.91 288.52 396.38
  Q 288.75 398.14 291.04 411.65
  Q 293.00 423.19 293.69 430.29
  C 294.03 433.86 294.64 438.15 291.72 439.99
  Q 289.16 441.60 286.85 441.65
  Q 248.45 442.37 211.00 441.75
  Q 201.35 441.58 202.54 431.77
  C 204.32 417.17 206.71 405.40 208.98 390.58
  Q 212.13 369.92 215.79 345.86
  C 216.82 339.08 218.75 330.96 219.70 324.23
  C 220.21 320.62 221.13 316.46 219.40 313.77
  C 216.28 308.92 210.98 307.99 206.61 311.86
  Q 203.95 314.22 198.96 319.21
  Q 182.26 335.94 158.84 358.58
  C 151.45 365.72 148.35 362.45 144.25 354.99
  Q 123.46 317.16 121.52 313.46
  C 117.42 305.66 111.59 296.50 107.50 287.52
  Q 105.72 283.62 108.19 280.52
  Q 109.42 278.97 114.87 277.39
  C 120.71 275.70 127.36 273.34 133.59 271.51
  Q 154.44 265.38 169.99 260.53
  Q 174.95 258.98 177.58 255.37
  C 179.40 252.85 178.90 247.21 177.03 245.00
  Q 175.57 243.28 171.98 242.24
  C 169.23 241.44 164.03 240.10 160.06 238.77
  Q 134.17 230.03 115.88 224.25
  Q 109.68 222.30 108.50 220.56
  C 105.88 216.73 107.16 213.94 109.47 209.87
  C 112.06 205.33 114.97 199.23 118.12 193.61
  Q 134.54 164.25 144.94 144.70
  C 147.29 140.29 151.48 135.99 156.61 140.16
  Q 159.42 142.45 162.38 145.37
  Q 181.29 164.01 199.27 181.73
  Q 205.59 187.96 208.37 190.39
  A 1.82 1.73 -17.9 0 0 209.24 190.81
  C 217.91 192.32 220.61 187.56 219.64 179.71
  C 217.51 162.47 214.24 147.03 211.67 129.69
  C 209.74 116.60 204.74 88.35 202.75 67.79
  C 202.11 61.27 207.13 59.28 212.75 59.24
  Q 268.79 58.86 286.76 59.31
  Q 292.23 59.45 293.98 63.91
  C 294.70 65.75 294.02 69.91 293.81 71.26
  Q 291.08 88.57 287.27 115.97
  C 284.81 133.70 282.22 148.84 279.51 167.00
  C 278.65 172.78 276.52 178.97 277.30 185.26
  A 1.79 1.78 -2.8 0 0 279.03 186.82
  Q 281.71 186.88 282.54 189.59
  Z"
/>
</svg>
