<?xml version="1.0" encoding="UTF-8" standalone="no"?>
<!DOCTYPE svg PUBLIC "-//W3C//DTD SVG 1.1//EN" "http://www.w3.org/Graphics/SVG/1.1/DTD/svg11.dtd">
<svg xmlns="http://www.w3.org/2000/svg" version="1.1" viewBox="0.00 0.00 508.00 491.00">
<path fill="#000000" d="
  M 82.19 401.73
  Q 47.54 363.45 31.69 311.93
  A 0.58 0.58 0.0 0 1 32.27 311.18
  Q 37.82 311.40 43.24 311.40
  Q 80.16 311.38 259.25 311.42
  C 274.60 311.42 287.18 310.88 299.96 302.72
  C 317.27 291.67 330.31 273.48 333.48 253.04
  C 334.78 244.67 334.20 235.14 328.75 228.58
  C 320.67 218.84 305.95 230.18 299.27 235.52
  Q 288.50 244.14 268.88 260.86
  Q 260.28 268.20 246.95 275.94
  C 224.61 288.92 197.75 291.53 176.21 276.05
  C 161.52 265.49 151.29 249.08 145.01 231.52
  Q 132.90 197.67 137.45 159.22
  C 141.17 127.76 156.85 100.55 188.62 91.08
  C 200.95 87.41 212.45 86.61 225.52 86.62
  Q 352.48 86.72 434.69 86.57
  Q 435.03 86.57 435.31 86.38
  A 0.57 0.57 0.0 0 1 436.04 86.46
  Q 440.90 91.69 445.50 97.53
  C 463.67 120.63 478.51 148.00 486.17 176.28
  A 0.49 0.48 -8.4 0 1 485.71 176.89
  C 485.17 176.90 484.52 176.61 483.73 176.61
  Q 246.07 176.58 187.31 176.64
  C 176.75 176.65 176.07 188.58 182.58 194.17
  C 189.75 200.33 200.90 201.98 210.00 202.56
  Q 230.50 203.86 251.51 200.77
  Q 260.74 199.40 276.28 196.53
  C 309.69 190.34 352.39 188.75 370.98 224.02
  Q 376.72 234.91 379.16 249.54
  C 382.06 266.85 382.33 285.30 381.24 302.52
  C 378.71 342.42 365.77 390.37 320.04 399.77
  Q 312.61 401.30 291.86 401.28
  Q 210.36 401.18 87.00 401.25
  Q 84.82 401.25 83.62 401.33
  Q 83.11 401.37 82.84 401.71
  A 0.43 0.43 0.0 0 1 82.19 401.73
  Z"
/>
</svg>
