<?xml version="1.0" encoding="UTF-8" standalone="no"?>
<!DOCTYPE svg PUBLIC "-//W3C//DTD SVG 1.1//EN" "http://www.w3.org/Graphics/SVG/1.1/DTD/svg11.dtd">
<svg xmlns="http://www.w3.org/2000/svg" version="1.1" viewBox="0.00 0.00 661.00 652.00">
<path fill="#000000" d="
  M 487.42 201.49
  L 489.36 193.85
  A 0.54 0.47 -40.9 0 0 489.38 193.71
  C 489.41 190.84 490.51 188.78 490.63 186.14
  Q 490.73 183.78 491.39 182.50
  A 2.19 2.09 59.9 0 0 491.63 181.51
  C 491.63 178.26 492.51 175.27 492.85 172.16
  Q 494.11 160.55 494.28 157.75
  Q 495.48 138.55 494.18 118.85
  A 1.47 1.46 28.9 0 0 494.00 118.23
  Q 493.84 117.93 493.82 117.76
  Q 492.05 96.53 483.98 77.54
  Q 472.24 49.91 447.57 36.45
  Q 428.99 26.31 404.79 25.00
  Q 399.70 24.72 396.29 24.36
  Q 393.02 24.02 389.81 24.37
  Q 385.49 24.85 384.20 24.91
  Q 373.83 25.43 372.70 25.41
  A 2.62 2.44 -53.0 0 0 371.74 25.58
  C 369.30 26.50 365.72 26.44 362.76 26.94
  C 313.90 35.31 265.87 61.15 238.08 103.04
  Q 222.76 126.13 218.42 154.13
  C 218.14 155.95 218.21 157.88 217.59 159.67
  A 2.92 2.63 -35.7 0 0 217.44 160.36
  Q 216.35 171.28 217.26 182.40
  Q 217.45 184.74 217.91 186.56
  Q 218.34 188.25 218.34 190.70
  A 1.95 1.94 29.4 0 0 218.63 191.72
  C 219.55 193.26 219.36 196.04 219.96 198.11
  Q 225.73 218.15 235.54 233.73
  Q 249.96 256.64 269.92 276.70
  Q 295.11 302.00 319.54 321.15
  Q 360.05 352.88 362.77 355.07
  C 389.18 376.28 412.75 399.47 429.93 427.54
  Q 441.16 445.90 447.46 467.76
  Q 448.49 471.36 451.07 484.92
  A 6.08 6.05 39.7 0 1 451.18 486.07
  Q 451.16 488.56 451.59 490.97
  Q 452.13 494.00 452.19 495.62
  Q 452.70 509.18 451.89 517.31
  C 451.79 518.30 451.29 519.37 451.35 520.56
  Q 451.44 522.09 450.61 527.32
  Q 448.55 540.33 445.74 550.02
  C 434.36 589.24 409.25 622.49 376.95 647.52
  A 2.69 2.63 -66.9 0 1 375.65 648.06
  Q 350.88 651.27 326.86 651.17
  A 0.27 0.27 0.0 0 1 326.67 650.71
  Q 362.52 615.57 375.14 566.67
  Q 376.66 560.76 376.83 558.69
  A 1.98 1.95 -26.9 0 1 377.13 557.80
  Q 377.60 557.04 377.53 556.75
  Q 377.34 556.04 378.52 549.88
  Q 380.93 537.33 380.59 522.59
  Q 379.96 494.81 367.80 469.87
  Q 359.78 453.40 346.87 438.12
  Q 330.60 418.86 309.72 402.02
  Q 296.69 391.52 264.59 365.91
  Q 240.54 346.72 217.74 324.77
  C 198.28 306.05 179.92 285.00 168.46 260.60
  Q 158.94 240.32 157.95 219.51
  Q 157.28 205.21 158.56 196.01
  Q 159.02 192.78 159.81 186.50
  A 4.71 4.47 60.6 0 1 160.08 185.42
  Q 160.77 183.58 160.78 180.69
  A 2.67 2.62 -30.4 0 1 161.14 179.36
  C 161.80 178.26 161.74 176.94 162.12 175.30
  Q 172.98 129.33 204.78 94.01
  C 217.49 79.91 232.29 67.51 248.15 57.33
  Q 287.27 32.24 333.16 22.01
  Q 333.19 22.01 336.56 21.08
  Q 338.29 20.60 340.77 20.50
  A 2.34 2.28 -59.8 0 0 341.70 20.24
  Q 343.33 19.38 345.99 19.43
  A 1.67 1.65 -60.7 0 0 346.93 19.16
  Q 347.31 18.93 347.44 18.91
  Q 352.16 18.27 360.08 17.04
  C 362.14 16.72 364.67 16.93 366.34 16.16
  A 1.81 1.79 -58.6 0 1 367.10 15.97
  L 375.13 15.58
  A 1.24 1.22 25.5 0 0 375.83 15.34
  Q 376.23 15.05 376.50 15.04
  Q 398.36 14.04 420.34 15.05
  A 1.32 1.32 0.0 0 1 421.00 15.27
  Q 421.39 15.54 421.75 15.56
  Q 425.93 15.78 431.11 15.94
  A 5.96 5.53 -33.1 0 1 432.62 16.20
  Q 493.23 35.81 542.29 76.20
  A 1.74 1.66 14.2 0 1 542.87 77.12
  Q 543.20 78.43 543.81 79.84
  Q 549.70 93.57 550.48 104.23
  Q 550.82 108.89 550.27 122.64
  A 2.50 2.36 61.8 0 1 550.00 123.63
  C 549.17 125.19 549.55 126.81 549.11 128.50
  Q 544.74 145.32 535.69 158.00
  C 523.00 175.79 506.09 189.45 487.83 201.78
  A 0.27 0.27 0.0 0 1 487.42 201.49
  Z"
/>
</svg>
